<svg t="1644388353676" class="icon" viewBox="0 0 1024 1024" version="1.1"
  xmlns="http://www.w3.org/2000/svg" p-id="4781" width="200" height="200">
  <path d="M861.013333 441.6l-278.613333-278.613333a193.322667 193.322667 0 0 0-135.68-56.32H256A149.333333 149.333333 0 0 0 106.666667 256v190.72a190.762667 190.762667 0 0 0 56.32 135.68l278.613333 278.613333a192 192 0 0 0 271.786667 0l147.626666-147.626666a192 192 0 0 0 0-271.786667zM320 384A64 64 0 1 1 384 320 64 64 0 0 1 320 384z" fill="#ffffff" p-id="4782"></path>
</svg>