<svg t="1644237091298" class="icon" viewBox="0 0 1024 1024" version="1.1"
  xmlns="http://www.w3.org/2000/svg" p-id="5115" width="200" height="200">
  <path d="M938.666667 256a42.666667 42.666667 0 0 1-42.666667 42.666667H128a42.666667 42.666667 0 0 1 0-85.333334h151.850667a42.666667 42.666667 0 0 0 40.448-29.184l13.482666-40.448A85.333333 85.333333 0 0 1 414.762667 85.333333h194.474666a85.333333 85.333333 0 0 1 81.066667 58.325334l13.482667 40.533333a42.666667 42.666667 0 0 0 40.362666 29.141333H896a42.666667 42.666667 0 0 1 42.666667 42.666667z m-115.2 129.28l-26.026667 392.533333a150.314667 150.314667 0 0 1-149.333333 139.52H375.893333a150.229333 150.229333 0 0 1-149.333333-139.093333L200.533333 385.28a21.802667 21.802667 0 0 1 5.546667-15.786667 22.314667 22.314667 0 0 1 15.786667-6.826666h580.266666a22.314667 22.314667 0 0 1 15.786667 6.826666 21.802667 21.802667 0 0 1 5.546667 15.786667zM469.333333 512a42.666667 42.666667 0 0 0-85.333333 0v213.333333a42.666667 42.666667 0 0 0 85.333333 0z m170.666667 0a42.666667 42.666667 0 0 0-85.333333 0v213.333333a42.666667 42.666667 0 0 0 85.333333 0z" fill="#ffffff" p-id="5116"></path>
</svg>