<svg t="1645877433833" class="icon" viewBox="0 0 1024 1024" version="1.1"
  xmlns="http://www.w3.org/2000/svg" p-id="1502" width="200" height="200">
  <path d="M857.6 857.6c-15.2 15.2-40.8 15.2-56.8 0L166.4 222.4c-15.2-15.2-15.2-40.8 0-56.8 15.2-15.2 40.8-15.2 56.8 0l635.2 635.2c15.2 16 15.2 41.6-0.8 56.8z" fill="#ffffff" p-id="1503"></path>
  <path d="M165.6 858.4c15.2 15.2 40.8 15.2 56.8 0l636-636c15.2-15.2 15.2-40.8 0-56.8-15.2-15.2-40.8-15.2-56.8 0l-636 636c-15.2 16-15.2 40.8 0 56.8z" fill="#ffffff" p-id="1504"></path>
</svg>